PathFileType	4	(X/Y/Z)	C:\Users\°ÂÌØÂü\Desktop\20210112\bx_n_10_501-Unnamed.trc
DataRate	CameraRate	NumFrames	NumMarkers	Units	OrigDataRate	OrigDataStartFrame	OrigNumFrames
50.00	50.00	       6	0	mm	50.00	55	       436
Frame#	Time	
		

55	1.080	-297.95438	142.59993	1651.97437	-528.77435	297.05505	1421.40088	-721.18518	239.80656	1053.41919	-752.52155	143.32697	577.13708	-687.43274	-4.60425	813.91217	-791.60767	274.65329	739.07306	-803.16992	251.22485	635.26831	-792.50519	246.84148	571.51337	-731.75940	205.61011	538.34979	-820.64435	258.67032	492.94977	-517.45892	-73.07184	143.02933	-550.76257	-28.34702	162.52423	-793.59344	37.98022	173.86299	-706.23834	-6.30791	1035.75330	-598.77136	25.54298	167.23109	-673.45422	53.03609	160.26651	-716.88190	155.62291	219.41379	-797.23010	178.47383	182.30957	-772.40857	227.26863	202.65718	-592.75891	220.15286	174.50209	-882.45807	296.25024	144.43991	-557.19830	255.83902	164.96240	-661.42273	298.91547	156.28506	-624.71448	307.53253	157.93469	-528.09845	304.17514	146.31651	-486.27878	-51.68895	1422.85059	-907.14905	86.67754	1076.76550	-799.34149	-47.21230	482.14774	-761.65717	-20.71033	204.77325	-875.80023	-78.62018	141.04199	-770.80206	-76.68261	872.39508				-723.21222	68.40580	218.07683	-751.28918	75.28754	574.97980				-675.69781	173.57851	160.32664	-607.16980	-75.30950	157.94168	-649.56952	-68.02401	161.44711	-557.77441	115.77951	1228.97791	-805.86761	283.76901	871.79773	-713.35803	18.94568	525.09143				-772.36084	-64.70800	756.67456	-768.56921	-35.67586	613.83771	-767.98578	-32.74652	566.86133	
56	1.100	-288.31711	142.11853	1639.87842	-519.99237	296.44257	1411.09485	-724.38538	239.03902	1052.11902	-754.23358	143.57430	576.37103	-690.34778	-4.83971	813.60919	-794.28461	274.75351	739.06732	-805.10175	251.25798	634.91730	-794.18591	245.93983	570.76868	-733.51929	204.88252	537.97705	-821.84113	258.68237	492.65759	-517.59210	-72.93291	143.07411	-550.40558	-27.99785	162.70424	-793.65839	37.78171	174.04254	-710.21570	-6.36131	1034.26050	-598.90558	25.49367	167.14467	-673.29993	52.65182	160.20367	-717.09265	155.58586	219.49936	-797.23010	178.47383	182.30957	-772.35669	227.24533	202.69119	-592.76697	220.05804	174.41930	-882.60132	296.29175	144.78691	-557.02496	255.60466	164.83562	-661.42273	298.91547	156.28506	-624.62140	307.49686	157.76039	-527.80750	304.10095	146.59390	-478.71490	-51.65970	1413.20691	-910.03821	86.93999	1077.36475	-801.24316	-47.86611	481.93439	-761.70892	-20.93858	204.55229	-875.94745	-78.63409	141.13739	-774.57312	-76.53072	871.83441	-700.10913	212.41922	822.89276	-723.94025	67.87743	218.05539				-753.43542	74.60183	575.06702	-675.41449	173.98019	160.20453	-607.46234	-75.21574	157.64078	-649.57666	-67.99444	161.43109	-554.44928	115.17802	1219.52795	-808.87988	284.23810	871.53455	-715.01331	18.49422	525.50012				-776.38062	-63.95457	755.34412	-770.87213	-36.03498	613.99463	-770.35297	-32.96153	566.59979	
57	1.120	-279.55701	141.79997	1626.96533	-511.42993	296.15714	1400.45691	-727.53467	238.65189	1050.74927	-756.38470	142.92783	576.46326	-694.13220	-5.42305	813.86963	-796.51105	274.93579	738.49988	-807.31635	250.66772	634.07001	-796.34021	246.36711	570.80750	-735.18762	205.23987	538.04907	-823.37561	258.54556	491.97556	-517.58075	-73.14923	143.17519	-550.55579	-27.92676	162.63399	-793.62146	37.73756	174.01738	-713.12610	-7.27890	1032.77124	-598.65619	25.94966	167.10136	-673.38086	52.81932	160.09904	-717.12231	155.48039	219.38046	-797.21912	178.41420	182.27028	-772.56244	227.32260	202.37895	-592.67792	220.08228	174.34122	-882.74030	296.27686	144.81750	-556.98041	255.37161	164.39728	-661.25439	299.08405	156.44385	-624.66382	307.47229	158.03746	-527.87366	303.89066	146.41599	-471.12781	-50.71480	1402.29565	-912.50677	86.95727	1077.84692	-802.84070	-47.60635	481.43439	-761.84351	-20.85154	204.40814	-875.87213	-78.71808	140.99890	-778.56873	-76.90221	871.33661	-702.97321	211.97798	822.25690	-724.04858	67.78284	217.96278				-755.55389	74.79756	574.59100	-675.50964	173.87514	160.60976	-607.49066	-75.47528	157.39883	-649.86304	-68.51942	161.19081	-551.33179	114.54911	1210.74316	-812.36713	284.21634	871.28613	-717.55890	18.49388	525.98853				-780.38458	-63.41042	754.79834	-773.62933	-36.01998	613.43616	-772.89728	-33.03058	566.22247	
58	1.140	-270.42365	141.06033	1614.26465	-503.10431	295.20016	1390.02930	-730.68365	238.47754	1049.59387	-758.80682	142.71623	576.19440	-697.67041	-5.04428	813.09882	-799.13885	274.74350	737.98718	-809.29028	251.18617	633.81085	-797.77600	245.64467	570.28101	-736.95837	205.09601	537.94019	-824.45264	258.53513	491.46066	-517.78143	-73.13699	142.99260	-550.51050	-27.88667	162.71730	-793.38586	37.28659	173.88579	-716.78375	-7.16175	1031.09314	-598.65619	25.94966	167.10136	-673.30426	52.53424	159.87769	-717.06262	155.66159	219.34531	-797.25500	178.44661	182.24544	-772.44745	227.37192	202.73622	-592.57965	219.97122	173.95369	-882.74500	296.09909	144.61725	-556.86407	255.50851	164.59773	-661.46869	299.21451	156.58975	-624.66382	307.47229	158.03746	-527.99890	304.02396	146.24170	-464.22562	-51.00305	1392.19275	-914.43292	86.47791	1078.57361	-804.90283	-48.08154	481.01028	-761.79468	-20.92175	203.82643	-875.87671	-78.61211	140.98958	-781.79028	-77.58466	871.23541	-706.16754	211.47610	822.54688	-724.04822	67.70276	218.00655				-758.37463	74.17426	574.37280	-675.41449	173.98019	160.20453	-607.49011	-75.54919	157.36464	-649.75458	-68.37152	161.34560	-549.14227	113.48032	1201.24768	-815.73633	283.84897	870.46271	-719.67261	18.40474	526.12836				-783.85693	-63.77475	754.24304	-775.92834	-36.52415	613.48822	-774.92285	-32.94234	566.11646	
59	1.160	-261.67050	141.03183	1601.69336	-494.78711	295.11084	1379.39734	-733.22223	238.01790	1048.29419	-760.74585	142.52505	576.07794	-700.50348	-6.02274	813.18481	-801.54364	274.45773	737.77979	-811.62555	250.77252	633.04321	-799.97235	245.51274	569.77386	-738.78784	204.83575	537.94244	-826.19263	258.62689	491.16998	-517.80585	-72.94386	143.03908	-550.49634	-27.78811	162.66101	-793.50232	37.07682	173.82687	-719.56171	-7.94619	1029.75781	-598.64642	26.06099	167.20580	-673.43384	52.53556	160.52402	-717.09265	155.58586	219.49936	-797.17737	178.48477	182.36212	-772.66064	227.54070	202.54652	-592.56555	219.84859	173.87769	-882.77368	296.11548	144.68588	-556.84192	255.30777	164.36877	-661.48792	299.02176	156.34247	-624.68579	307.29715	158.10513	-528.05237	304.07245	146.17361	-457.18613	-51.00496	1382.38135				-806.08423	-48.45689	480.97952	-762.18982	-20.85316	203.64842	-875.85522	-78.73365	141.22168	-785.30078	-77.73022	870.62085	-709.06067	210.93665	822.15411	-724.14624	67.64299	218.13261				-760.48499	74.66341	574.44818	-675.34534	173.94810	160.66335	-607.22052	-75.68317	157.02310	-649.59778	-68.41611	160.95177	-546.62433	112.52206	1192.39490	-818.69299	284.29453	870.43903	-721.17975	18.43557	526.26849				-786.36304	-63.78716	753.63678	-778.40729	-36.48768	612.88501	-777.20587	-33.30073	565.71252	
60	1.180	-253.62408	140.65300	1588.81494	-486.76529	294.16171	1368.71802	-735.92816	237.78539	1046.84009	-762.09650	143.24699	575.26843	-703.71826	-6.05489	812.71863	-803.97308	274.69476	737.35419	-813.57281	251.20871	632.86902	-801.74353	246.18584	569.69617	-740.28949	204.98251	537.96881	-827.05927	258.60385	490.39233	-517.87927	-72.89280	142.86568	-550.44092	-27.71543	162.76331	-793.54956	37.01204	173.93797	-723.03998	-7.85404	1028.32239	-598.68805	25.79126	166.81619	-673.51874	52.47580	159.97676	-717.18781	155.53328	219.59666	-797.29529	178.54337	182.22041	-771.95776	227.45467	202.48253	-592.71460	219.78812	173.85779	-882.52380	296.05832	144.56625	-556.66638	255.39400	164.40628	-661.46869	299.21451	156.58975	-624.65576	307.55472	157.93488	-528.00018	304.02240	146.20293	-450.11438	-50.25203	1371.58252				-807.97424	-48.48997	480.40115	-761.78510	-21.67140	204.06685	-875.88159	-78.69018	141.14127	-788.92145	-77.55215	870.10834	-712.13159	210.35667	821.97223	-724.31342	67.59695	218.22505				-762.94135	74.01550	573.98578	-675.47083	174.00972	160.36816	-607.12140	-75.56100	156.87642	-649.54529	-68.42641	160.68486	-544.40240	112.04115	1183.54761	-821.38959	284.09418	869.92474	-722.90845	18.20470	526.05804				-789.11102	-64.82864	753.74567	-780.63531	-36.48161	612.36249	-779.01196	-33.09091	565.39148	
